<svg xmlns="http://www.w3.org/2000/svg" width="1180" height="720" viewBox="0 0 1180 720" role="img" aria-labelledby="title desc">
  <title id="title">Page2Divi application screenshot</title>
  <desc id="desc">Sanitized screenshot-style illustration of the Page2Divi desktop tool showing URL mode, compare-ready preview tooling, session profile menus, Divi 5 export settings, and safe example values.</desc>
  <defs>
    <linearGradient id="bg" x1="0" x2="0" y1="0" y2="1">
      <stop offset="0%" stop-color="#f7f5f4"/>
      <stop offset="100%" stop-color="#f1efee"/>
    </linearGradient>
    <filter id="shadow" x="-10%" y="-10%" width="120%" height="120%">
      <feDropShadow dx="0" dy="10" stdDeviation="18" flood-color="#000000" flood-opacity="0.14"/>
    </filter>
    <style>
      .ui { font-family: "Segoe UI", Arial, sans-serif; }
      .small { font-size: 14px; fill: #4f4b48; }
      .label { font-size: 16px; fill: #2d2926; }
      .section { font-size: 17px; font-weight: 600; fill: #49423d; }
      .button { font-size: 15px; font-weight: 600; fill: #2c2a29; }
      .muted { fill: #817b76; }
    </style>
  </defs>

  <rect width="1180" height="720" fill="url(#bg)"/>
  <g class="ui" filter="url(#shadow)">
    <rect x="26" y="22" width="1128" height="654" rx="16" fill="#f7f6f5" stroke="#d7d1cd"/>
    <rect x="26" y="22" width="1128" height="42" rx="16" fill="#ece7e4"/>
    <rect x="26" y="48" width="1128" height="628" fill="#faf9f8"/>

    <g transform="translate(48 35)">
      <rect x="0" y="0" width="18" height="18" rx="4" fill="#7a57d1"/>
      <path d="M5 5h3v3H5zM10 5h3v3h-3zM5 10h3v3H5zM10 10h3v3h-3z" fill="#ffffff"/>
      <text x="28" y="14" font-size="15" fill="#2f2a27">Page2Divi v0075</text>
      <text x="1008" y="14" font-size="19" fill="#2f2a27">&#8211;</text>
      <rect x="1042" y="2" width="12" height="12" fill="none" stroke="#2f2a27" stroke-width="1.5"/>
      <path d="M1084 2h14v14h-14z" fill="none" stroke="#2f2a27" stroke-width="1.5"/>
    </g>

    <text x="44" y="88" class="label">File</text>
    <text x="92" y="88" class="label">Tools</text>
    <text x="152" y="88" class="label">Advanced</text>
    <text x="244" y="88" class="label">Help</text>

    <rect x="42" y="106" width="1096" height="180" fill="#fbfbfb" stroke="#ddd7d2"/>
    <text x="66" y="132" class="section">Choose Your Source</text>
    <text x="70" y="168" class="label">Source type</text>

    <circle cx="194" cy="163" r="9" fill="#1f66c1"/>
    <circle cx="194" cy="163" r="4" fill="#ffffff"/>
    <text x="212" y="169" class="label">URL</text>
    <circle cx="274" cy="163" r="9" fill="#ffffff" stroke="#8f8883"/>
    <text x="292" y="169" class="label">Paste HTML</text>
    <circle cx="404" cy="163" r="9" fill="#ffffff" stroke="#8f8883"/>
    <text x="422" y="169" class="label">Paste File List</text>
    <circle cx="566" cy="163" r="9" fill="#ffffff" stroke="#8f8883"/>
    <text x="584" y="169" class="label">File</text>
    <circle cx="640" cy="163" r="9" fill="#ffffff" stroke="#8f8883"/>
    <text x="658" y="169" class="label">Source Folder</text>

    <text x="70" y="214" class="label">Start page URL</text>
    <rect x="196" y="190" width="928" height="28" rx="3" fill="#ffffff" stroke="#d6d0cb"/>
    <rect x="202" y="215" width="916" height="2" fill="#2c69c8" opacity="0.65"/>
    <text x="206" y="210" class="small muted">https://example.com/demo-page</text>

    <rect x="70" y="235" width="16" height="16" rx="2" fill="#1f66c1"/>
    <path d="M74 243l3 3 6-8" fill="none" stroke="#ffffff" stroke-width="2" stroke-linecap="round" stroke-linejoin="round"/>
    <text x="94" y="248" class="label">Process Internal Page Links in Page(s)</text>
    <rect x="392" y="235" width="16" height="16" rx="2" fill="#ffffff" stroke="#8f8883"/>
    <text x="416" y="248" class="label">Follow Site Menu</text>
    <text x="548" y="248" class="label">Depth</text>
    <rect x="598" y="226" width="54" height="28" rx="3" fill="#f8f7f6" stroke="#d6d0cb"/>
    <text x="624" y="246" text-anchor="middle" class="label">1</text>
    <text x="678" y="248" class="label">Internal Links</text>
    <rect x="794" y="226" width="180" height="28" rx="3" fill="#ffffff" stroke="#d6d0cb"/>
    <text x="808" y="246" class="label">Strip Same-Site URLs</text>

    <text x="70" y="286" class="label">Downloaded File Links</text>
    <rect x="250" y="264" width="300" height="28" rx="3" fill="#ffffff" stroke="#d6d0cb"/>
    <text x="264" y="284" class="label">Use Downloaded Media Paths</text>
    <text x="568" y="284" class="small muted">Downloaded documents and linked files point to the exported media/file path when available.</text>

    <rect x="42" y="304" width="1096" height="84" fill="#fbfbfb" stroke="#ddd7d2"/>
    <text x="66" y="330" class="section">Import Settings</text>
    <text x="70" y="370" class="label">Header handling</text>
    <rect x="216" y="348" width="196" height="28" rx="3" fill="#ffffff" stroke="#d6d0cb"/>
    <text x="230" y="368" class="label">Separate Heading Modules</text>
    <text x="444" y="370" class="label">Preset behavior</text>
    <rect x="580" y="348" width="190" height="28" rx="3" fill="#ffffff" stroke="#d6d0cb"/>
    <text x="594" y="368" class="label">Keep Source Styling</text>
    <text x="796" y="370" class="label">Target Divi version</text>
    <rect x="954" y="348" width="144" height="28" rx="3" fill="#ffffff" stroke="#d6d0cb"/>
    <text x="968" y="368" class="label">Divi 5</text>
    <text x="954" y="390" class="small muted">Variables: On (WIP)</text>

    <rect x="42" y="402" width="1096" height="74" fill="#fbfbfb" stroke="#ddd7d2"/>
    <text x="66" y="430" class="section">Save To</text>
    <text x="70" y="460" class="label">Output folder</text>
    <rect x="196" y="438" width="840" height="28" rx="3" fill="#ffffff" stroke="#d6d0cb"/>
    <rect x="202" y="463" width="828" height="2" fill="#2c69c8" opacity="0.65"/>
    <text x="206" y="458" class="small muted">C:\Page2DiviDemo\output</text>
    <rect x="1060" y="438" width="64" height="28" rx="5" fill="#ffffff" stroke="#d6d0cb"/>
    <text x="1092" y="457" text-anchor="middle" class="button">Browse</text>

    <rect x="42" y="490" width="1096" height="112" fill="#fbfbfb" stroke="#ddd7d2"/>
    <text x="66" y="518" class="section">Activity Log</text>
    <rect x="58" y="532" width="1064" height="58" fill="#ffffff" stroke="#d6d0cb"/>
    <text x="72" y="558" class="small muted">Preview, compare, and convert tools are ready.</text>
    <text x="72" y="578" class="small muted">JSON diff and issue summaries open from Preview and Tools.</text>

    <rect x="42" y="610" width="1096" height="48" fill="#faf9f8"/>
    <text x="60" y="639" font-size="18" fill="#2b2b2b">Ready to preview, compare, or convert</text>
    <rect x="720" y="620" width="104" height="32" rx="6" fill="#ffffff" stroke="#cfc8c3"/>
    <text x="772" y="641" text-anchor="middle" class="button">Preview...</text>
    <rect x="836" y="620" width="176" height="32" rx="6" fill="#ffffff" stroke="#cfc8c3"/>
    <text x="924" y="641" text-anchor="middle" class="button">Create Divi Import File</text>
    <rect x="1024" y="620" width="98" height="32" rx="6" fill="#f0efee" stroke="#d9d3ce"/>
    <text x="1073" y="641" text-anchor="middle" class="button muted">Cancel</text>
  </g>
</svg>
